<svg xmlns="http://www.w3.org/2000/svg" xmlns:xlink="http://www.w3.org/1999/xlink" width="500" zoomAndPan="magnify" viewBox="0 0 375 374.999991" height="500" preserveAspectRatio="xMidYMid meet" version="1.0"><defs><g/><clipPath id="f9ba87071e"><path d="M 73.304688 165.828125 L 100.644531 165.828125 L 100.644531 209.039062 L 73.304688 209.039062 Z M 73.304688 165.828125 " clip-rule="nonzero"/></clipPath><clipPath id="8cf6345aad"><path d="M 8.167969 165.027344 L 35 165.027344 L 35 208.242188 L 8.167969 208.242188 Z M 8.167969 165.027344 " clip-rule="nonzero"/></clipPath></defs><g clip-path="url(#f9ba87071e)"><path fill="#ffffff" d="M 78.792969 165.847656 C 77.457031 165.847656 76.203125 166.367188 75.257812 167.3125 C 73.304688 169.265625 73.304688 172.4375 75.257812 174.386719 L 88.367188 187.5 L 75.257812 200.609375 C 74.3125 201.554688 73.792969 202.8125 73.792969 204.148438 C 73.792969 205.484375 74.3125 206.742188 75.257812 207.683594 C 76.203125 208.628906 77.457031 209.152344 78.792969 209.152344 C 80.128906 209.152344 81.386719 208.628906 82.332031 207.6875 L 98.976562 191.039062 C 99.925781 190.09375 100.445312 188.835938 100.441406 187.496094 C 100.445312 186.164062 99.925781 184.90625 98.976562 183.960938 L 82.332031 167.3125 C 81.386719 166.367188 80.128906 165.847656 78.792969 165.847656 " fill-opacity="1" fill-rule="nonzero"/></g><g clip-path="url(#8cf6345aad)"><path fill="#ffffff" d="M 29.816406 165.050781 C 31.152344 165.050781 32.410156 165.570312 33.355469 166.515625 C 35.304688 168.464844 35.304688 171.636719 33.355469 173.589844 L 20.246094 186.699219 L 33.355469 199.8125 C 34.300781 200.757812 34.820312 202.011719 34.820312 203.347656 C 34.820312 204.683594 34.300781 205.941406 33.355469 206.886719 C 32.410156 207.832031 31.152344 208.351562 29.816406 208.351562 C 28.480469 208.351562 27.226562 207.832031 26.28125 206.886719 L 9.632812 190.238281 C 8.6875 189.292969 8.167969 188.035156 8.167969 186.699219 C 8.167969 185.363281 8.6875 184.105469 9.632812 183.160156 L 26.28125 166.515625 C 27.226562 165.570312 28.480469 165.050781 29.816406 165.050781 " fill-opacity="1" fill-rule="nonzero"/></g><g fill="#ffffff" fill-opacity="1"><g transform="translate(37.341623, 204.060816)"><g><path d="M 3.953125 -32.90625 L 19.21875 -32.90625 C 23.007812 -32.90625 25.878906 -31.929688 27.828125 -29.984375 C 29.328125 -28.484375 30.078125 -26.617188 30.078125 -24.390625 L 30.078125 -24.296875 C 30.078125 -23.359375 29.957031 -22.53125 29.71875 -21.8125 C 29.488281 -21.09375 29.175781 -20.441406 28.78125 -19.859375 C 28.394531 -19.273438 27.941406 -18.765625 27.421875 -18.328125 C 26.910156 -17.890625 26.351562 -17.515625 25.75 -17.203125 C 27.664062 -16.484375 29.171875 -15.503906 30.265625 -14.265625 C 31.359375 -13.023438 31.90625 -11.3125 31.90625 -9.125 L 31.90625 -9.03125 C 31.90625 -7.519531 31.613281 -6.203125 31.03125 -5.078125 C 30.457031 -3.953125 29.628906 -3.007812 28.546875 -2.25 C 27.472656 -1.5 26.175781 -0.9375 24.65625 -0.5625 C 23.132812 -0.1875 21.445312 0 19.59375 0 L 3.953125 0 Z M 22.890625 -23.171875 C 22.890625 -24.265625 22.476562 -25.101562 21.65625 -25.6875 C 20.84375 -26.269531 19.671875 -26.5625 18.140625 -26.5625 L 11 -26.5625 L 11 -19.59375 L 17.671875 -19.59375 C 19.265625 -19.59375 20.53125 -19.867188 21.46875 -20.421875 C 22.414062 -20.972656 22.890625 -21.859375 22.890625 -23.078125 Z M 24.71875 -10.015625 C 24.71875 -11.109375 24.296875 -11.972656 23.453125 -12.609375 C 22.609375 -13.253906 21.242188 -13.578125 19.359375 -13.578125 L 11 -13.578125 L 11 -6.34375 L 19.59375 -6.34375 C 21.195312 -6.34375 22.453125 -6.628906 23.359375 -7.203125 C 24.265625 -7.785156 24.71875 -8.691406 24.71875 -9.921875 Z M 24.71875 -10.015625 "/></g></g></g><g fill="#ffffff" fill-opacity="1"><g transform="translate(115.684526, 184.897857)"><g><path d="M 2.375 -19.84375 L 11.59375 -19.84375 C 13.875 -19.84375 15.601562 -19.253906 16.78125 -18.078125 C 17.6875 -17.171875 18.140625 -16.046875 18.140625 -14.703125 L 18.140625 -14.65625 C 18.140625 -14.082031 18.066406 -13.578125 17.921875 -13.140625 C 17.785156 -12.710938 17.597656 -12.320312 17.359375 -11.96875 C 17.117188 -11.625 16.84375 -11.316406 16.53125 -11.046875 C 16.226562 -10.785156 15.894531 -10.5625 15.53125 -10.375 C 16.6875 -9.9375 17.59375 -9.34375 18.25 -8.59375 C 18.914062 -7.851562 19.25 -6.820312 19.25 -5.5 L 19.25 -5.4375 C 19.25 -4.53125 19.070312 -3.738281 18.71875 -3.0625 C 18.375 -2.382812 17.875 -1.816406 17.21875 -1.359375 C 16.5625 -0.910156 15.773438 -0.570312 14.859375 -0.34375 C 13.941406 -0.113281 12.925781 0 11.8125 0 L 2.375 0 Z M 13.796875 -13.96875 C 13.796875 -14.632812 13.550781 -15.140625 13.0625 -15.484375 C 12.570312 -15.835938 11.863281 -16.015625 10.9375 -16.015625 L 6.625 -16.015625 L 6.625 -11.8125 L 10.65625 -11.8125 C 11.625 -11.8125 12.390625 -11.976562 12.953125 -12.3125 C 13.515625 -12.644531 13.796875 -13.179688 13.796875 -13.921875 Z M 14.90625 -6.03125 C 14.90625 -6.695312 14.648438 -7.222656 14.140625 -7.609375 C 13.628906 -7.992188 12.804688 -8.1875 11.671875 -8.1875 L 6.625 -8.1875 L 6.625 -3.828125 L 11.8125 -3.828125 C 12.78125 -3.828125 13.535156 -4 14.078125 -4.34375 C 14.628906 -4.695312 14.90625 -5.242188 14.90625 -5.984375 Z M 14.90625 -6.03125 "/></g></g></g><g fill="#ffffff" fill-opacity="1"><g transform="translate(136.141574, 184.897857)"><g><path d="M 2.578125 -19.84375 L 6.9375 -19.84375 L 6.9375 0 L 2.578125 0 Z M 2.578125 -19.84375 "/></g></g></g><g fill="#ffffff" fill-opacity="1"><g transform="translate(145.661753, 184.897857)"><g><path d="M 9.1875 -19.984375 L 13.203125 -19.984375 L 21.71875 0 L 17.140625 0 L 15.328125 -4.453125 L 6.9375 -4.453125 L 5.125 0 L 0.6875 0 Z M 13.78125 -8.3125 L 11.140625 -14.734375 L 8.5 -8.3125 Z M 13.78125 -8.3125 "/></g></g></g><g fill="#ffffff" fill-opacity="1"><g transform="translate(168.045492, 184.897857)"><g><path d="M 11.9375 0.34375 C 10.382812 0.34375 8.96875 0.0859375 7.6875 -0.421875 C 6.414062 -0.929688 5.320312 -1.640625 4.40625 -2.546875 C 3.488281 -3.453125 2.773438 -4.53125 2.265625 -5.78125 C 1.753906 -7.03125 1.5 -8.390625 1.5 -9.859375 L 1.5 -9.921875 C 1.5 -11.335938 1.757812 -12.664062 2.28125 -13.90625 C 2.800781 -15.144531 3.523438 -16.226562 4.453125 -17.15625 C 5.378906 -18.09375 6.472656 -18.832031 7.734375 -19.375 C 9.003906 -19.914062 10.394531 -20.1875 11.90625 -20.1875 C 12.789062 -20.1875 13.597656 -20.125 14.328125 -20 C 15.054688 -19.875 15.734375 -19.695312 16.359375 -19.46875 C 16.984375 -19.238281 17.566406 -18.953125 18.109375 -18.609375 C 18.660156 -18.273438 19.191406 -17.890625 19.703125 -17.453125 L 16.953125 -14.140625 C 16.566406 -14.460938 16.1875 -14.742188 15.8125 -14.984375 C 15.4375 -15.234375 15.046875 -15.441406 14.640625 -15.609375 C 14.234375 -15.785156 13.789062 -15.921875 13.3125 -16.015625 C 12.84375 -16.109375 12.328125 -16.15625 11.765625 -16.15625 C 10.972656 -16.15625 10.226562 -15.988281 9.53125 -15.65625 C 8.84375 -15.320312 8.238281 -14.875 7.71875 -14.3125 C 7.195312 -13.757812 6.789062 -13.109375 6.5 -12.359375 C 6.207031 -11.617188 6.0625 -10.828125 6.0625 -9.984375 L 6.0625 -9.921875 C 6.0625 -9.015625 6.207031 -8.175781 6.5 -7.40625 C 6.789062 -6.644531 7.207031 -5.976562 7.75 -5.40625 C 8.289062 -4.84375 8.925781 -4.40625 9.65625 -4.09375 C 10.382812 -3.78125 11.191406 -3.625 12.078125 -3.625 C 13.703125 -3.625 15.070312 -4.019531 16.1875 -4.8125 L 16.1875 -7.65625 L 11.796875 -7.65625 L 11.796875 -11.421875 L 20.40625 -11.421875 L 20.40625 -2.8125 C 19.382812 -1.9375 18.171875 -1.191406 16.765625 -0.578125 C 15.359375 0.0351562 13.75 0.34375 11.9375 0.34375 Z M 11.9375 0.34375 "/></g></g></g><g fill="#ffffff" fill-opacity="1"><g transform="translate(190.259236, 184.897857)"><g><path d="M 2.578125 -19.84375 L 6.9375 -19.84375 L 6.9375 0 L 2.578125 0 Z M 2.578125 -19.84375 "/></g></g></g><g fill="#ffffff" fill-opacity="1"><g transform="translate(199.779415, 184.897857)"><g><path d="M 12.015625 0.34375 C 10.484375 0.34375 9.070312 0.0703125 7.78125 -0.46875 C 6.5 -1.007812 5.390625 -1.738281 4.453125 -2.65625 C 3.523438 -3.570312 2.800781 -4.644531 2.28125 -5.875 C 1.757812 -7.113281 1.5 -8.441406 1.5 -9.859375 L 1.5 -9.921875 C 1.5 -11.335938 1.765625 -12.664062 2.296875 -13.90625 C 2.828125 -15.144531 3.554688 -16.226562 4.484375 -17.15625 C 5.421875 -18.09375 6.535156 -18.832031 7.828125 -19.375 C 9.128906 -19.914062 10.546875 -20.1875 12.078125 -20.1875 C 13.609375 -20.1875 15.015625 -19.914062 16.296875 -19.375 C 17.578125 -18.832031 18.6875 -18.101562 19.625 -17.1875 C 20.5625 -16.269531 21.289062 -15.191406 21.8125 -13.953125 C 22.332031 -12.722656 22.59375 -11.398438 22.59375 -9.984375 L 22.59375 -9.921875 C 22.59375 -8.503906 22.328125 -7.175781 21.796875 -5.9375 C 21.265625 -4.695312 20.53125 -3.609375 19.59375 -2.671875 C 18.664062 -1.742188 17.550781 -1.007812 16.25 -0.46875 C 14.957031 0.0703125 13.546875 0.34375 12.015625 0.34375 Z M 12.078125 -3.6875 C 12.941406 -3.6875 13.742188 -3.84375 14.484375 -4.15625 C 15.222656 -4.476562 15.847656 -4.921875 16.359375 -5.484375 C 16.878906 -6.054688 17.285156 -6.71875 17.578125 -7.46875 C 17.878906 -8.21875 18.03125 -9.015625 18.03125 -9.859375 L 18.03125 -9.921875 C 18.03125 -10.773438 17.878906 -11.578125 17.578125 -12.328125 C 17.285156 -13.085938 16.867188 -13.75 16.328125 -14.3125 C 15.796875 -14.875 15.160156 -15.320312 14.421875 -15.65625 C 13.691406 -15.988281 12.890625 -16.15625 12.015625 -16.15625 C 11.128906 -16.15625 10.320312 -15.992188 9.59375 -15.671875 C 8.863281 -15.347656 8.238281 -14.898438 7.71875 -14.328125 C 7.195312 -13.765625 6.789062 -13.109375 6.5 -12.359375 C 6.207031 -11.617188 6.0625 -10.828125 6.0625 -9.984375 L 6.0625 -9.921875 C 6.0625 -9.066406 6.207031 -8.257812 6.5 -7.5 C 6.789062 -6.75 7.207031 -6.085938 7.75 -5.515625 C 8.289062 -4.953125 8.925781 -4.503906 9.65625 -4.171875 C 10.382812 -3.847656 11.191406 -3.6875 12.078125 -3.6875 Z M 12.078125 -3.6875 "/></g></g></g><g fill="#ffffff" fill-opacity="1"><g transform="translate(223.863197, 184.897857)"><g/></g></g><g fill="#ffffff" fill-opacity="1"><g transform="translate(232.36336, 184.897857)"><g><path d="M 9.4375 0.28125 C 7.925781 0.28125 6.441406 0.0195312 4.984375 -0.5 C 3.535156 -1.019531 2.210938 -1.816406 1.015625 -2.890625 L 3.59375 -5.984375 C 4.5 -5.242188 5.429688 -4.65625 6.390625 -4.21875 C 7.347656 -3.789062 8.394531 -3.578125 9.53125 -3.578125 C 10.4375 -3.578125 11.140625 -3.738281 11.640625 -4.0625 C 12.140625 -4.394531 12.390625 -4.851562 12.390625 -5.4375 L 12.390625 -5.5 C 12.390625 -5.78125 12.335938 -6.03125 12.234375 -6.25 C 12.128906 -6.46875 11.929688 -6.671875 11.640625 -6.859375 C 11.347656 -7.046875 10.941406 -7.234375 10.421875 -7.421875 C 9.898438 -7.609375 9.222656 -7.804688 8.390625 -8.015625 C 7.390625 -8.265625 6.484375 -8.539062 5.671875 -8.84375 C 4.859375 -9.144531 4.164062 -9.515625 3.59375 -9.953125 C 3.03125 -10.398438 2.59375 -10.953125 2.28125 -11.609375 C 1.96875 -12.273438 1.8125 -13.101562 1.8125 -14.09375 L 1.8125 -14.140625 C 1.8125 -15.046875 1.976562 -15.863281 2.3125 -16.59375 C 2.65625 -17.320312 3.132812 -17.953125 3.75 -18.484375 C 4.363281 -19.015625 5.097656 -19.421875 5.953125 -19.703125 C 6.804688 -19.984375 7.742188 -20.125 8.765625 -20.125 C 10.210938 -20.125 11.546875 -19.90625 12.765625 -19.46875 C 13.984375 -19.03125 15.101562 -18.40625 16.125 -17.59375 L 13.859375 -14.3125 C 12.972656 -14.914062 12.101562 -15.390625 11.25 -15.734375 C 10.40625 -16.085938 9.554688 -16.265625 8.703125 -16.265625 C 7.847656 -16.265625 7.207031 -16.097656 6.78125 -15.765625 C 6.363281 -15.441406 6.15625 -15.035156 6.15625 -14.546875 L 6.15625 -14.484375 C 6.15625 -14.160156 6.210938 -13.878906 6.328125 -13.640625 C 6.453125 -13.410156 6.675781 -13.195312 7 -13 C 7.320312 -12.8125 7.757812 -12.632812 8.3125 -12.46875 C 8.875 -12.300781 9.582031 -12.101562 10.4375 -11.875 C 11.4375 -11.613281 12.328125 -11.316406 13.109375 -10.984375 C 13.890625 -10.648438 14.550781 -10.25 15.09375 -9.78125 C 15.632812 -9.320312 16.039062 -8.78125 16.3125 -8.15625 C 16.582031 -7.539062 16.71875 -6.796875 16.71875 -5.921875 L 16.71875 -5.859375 C 16.71875 -4.878906 16.535156 -4.003906 16.171875 -3.234375 C 15.816406 -2.472656 15.316406 -1.832031 14.671875 -1.3125 C 14.035156 -0.789062 13.269531 -0.394531 12.375 -0.125 C 11.488281 0.144531 10.507812 0.28125 9.4375 0.28125 Z M 9.4375 0.28125 "/></g></g></g><g fill="#ffffff" fill-opacity="1"><g transform="translate(250.497026, 184.897857)"><g><path d="M 11.671875 0.34375 C 10.222656 0.34375 8.875 0.078125 7.625 -0.453125 C 6.375 -0.984375 5.296875 -1.707031 4.390625 -2.625 C 3.484375 -3.539062 2.773438 -4.617188 2.265625 -5.859375 C 1.753906 -7.109375 1.5 -8.441406 1.5 -9.859375 L 1.5 -9.921875 C 1.5 -11.335938 1.753906 -12.664062 2.265625 -13.90625 C 2.773438 -15.144531 3.484375 -16.226562 4.390625 -17.15625 C 5.296875 -18.09375 6.378906 -18.832031 7.640625 -19.375 C 8.910156 -19.914062 10.3125 -20.1875 11.84375 -20.1875 C 12.769531 -20.1875 13.613281 -20.109375 14.375 -19.953125 C 15.144531 -19.804688 15.84375 -19.597656 16.46875 -19.328125 C 17.09375 -19.066406 17.664062 -18.742188 18.1875 -18.359375 C 18.71875 -17.984375 19.210938 -17.570312 19.671875 -17.125 L 16.890625 -13.921875 C 16.117188 -14.617188 15.332031 -15.164062 14.53125 -15.5625 C 13.726562 -15.957031 12.820312 -16.15625 11.8125 -16.15625 C 10.988281 -16.15625 10.222656 -15.992188 9.515625 -15.671875 C 8.804688 -15.347656 8.195312 -14.898438 7.6875 -14.328125 C 7.175781 -13.765625 6.773438 -13.109375 6.484375 -12.359375 C 6.203125 -11.617188 6.0625 -10.828125 6.0625 -9.984375 L 6.0625 -9.921875 C 6.0625 -9.066406 6.203125 -8.257812 6.484375 -7.5 C 6.773438 -6.75 7.171875 -6.085938 7.671875 -5.515625 C 8.171875 -4.953125 8.773438 -4.503906 9.484375 -4.171875 C 10.191406 -3.847656 10.96875 -3.6875 11.8125 -3.6875 C 12.945312 -3.6875 13.90625 -3.894531 14.6875 -4.3125 C 15.476562 -4.726562 16.257812 -5.296875 17.03125 -6.015625 L 19.8125 -3.203125 C 19.300781 -2.648438 18.769531 -2.15625 18.21875 -1.71875 C 17.675781 -1.289062 17.078125 -0.921875 16.421875 -0.609375 C 15.773438 -0.296875 15.0625 -0.0625 14.28125 0.09375 C 13.507812 0.257812 12.640625 0.34375 11.671875 0.34375 Z M 11.671875 0.34375 "/></g></g></g><g fill="#ffffff" fill-opacity="1"><g transform="translate(271.407403, 184.897857)"><g><path d="M 9.1875 -19.984375 L 13.203125 -19.984375 L 21.71875 0 L 17.140625 0 L 15.328125 -4.453125 L 6.9375 -4.453125 L 5.125 0 L 0.6875 0 Z M 13.78125 -8.3125 L 11.140625 -14.734375 L 8.5 -8.3125 Z M 13.78125 -8.3125 "/></g></g></g><g fill="#ffffff" fill-opacity="1"><g transform="translate(293.791142, 184.897857)"><g><path d="M 11.9375 0.34375 C 10.382812 0.34375 8.96875 0.0859375 7.6875 -0.421875 C 6.414062 -0.929688 5.320312 -1.640625 4.40625 -2.546875 C 3.488281 -3.453125 2.773438 -4.53125 2.265625 -5.78125 C 1.753906 -7.03125 1.5 -8.390625 1.5 -9.859375 L 1.5 -9.921875 C 1.5 -11.335938 1.757812 -12.664062 2.28125 -13.90625 C 2.800781 -15.144531 3.523438 -16.226562 4.453125 -17.15625 C 5.378906 -18.09375 6.472656 -18.832031 7.734375 -19.375 C 9.003906 -19.914062 10.394531 -20.1875 11.90625 -20.1875 C 12.789062 -20.1875 13.597656 -20.125 14.328125 -20 C 15.054688 -19.875 15.734375 -19.695312 16.359375 -19.46875 C 16.984375 -19.238281 17.566406 -18.953125 18.109375 -18.609375 C 18.660156 -18.273438 19.191406 -17.890625 19.703125 -17.453125 L 16.953125 -14.140625 C 16.566406 -14.460938 16.1875 -14.742188 15.8125 -14.984375 C 15.4375 -15.234375 15.046875 -15.441406 14.640625 -15.609375 C 14.234375 -15.785156 13.789062 -15.921875 13.3125 -16.015625 C 12.84375 -16.109375 12.328125 -16.15625 11.765625 -16.15625 C 10.972656 -16.15625 10.226562 -15.988281 9.53125 -15.65625 C 8.84375 -15.320312 8.238281 -14.875 7.71875 -14.3125 C 7.195312 -13.757812 6.789062 -13.109375 6.5 -12.359375 C 6.207031 -11.617188 6.0625 -10.828125 6.0625 -9.984375 L 6.0625 -9.921875 C 6.0625 -9.015625 6.207031 -8.175781 6.5 -7.40625 C 6.789062 -6.644531 7.207031 -5.976562 7.75 -5.40625 C 8.289062 -4.84375 8.925781 -4.40625 9.65625 -4.09375 C 10.382812 -3.78125 11.191406 -3.625 12.078125 -3.625 C 13.703125 -3.625 15.070312 -4.019531 16.1875 -4.8125 L 16.1875 -7.65625 L 11.796875 -7.65625 L 11.796875 -11.421875 L 20.40625 -11.421875 L 20.40625 -2.8125 C 19.382812 -1.9375 18.171875 -1.191406 16.765625 -0.578125 C 15.359375 0.0351562 13.75 0.34375 11.9375 0.34375 Z M 11.9375 0.34375 "/></g></g></g><g fill="#ffffff" fill-opacity="1"><g transform="translate(316.004886, 184.897857)"><g><path d="M 2.375 -19.84375 L 6.75 -19.84375 L 6.75 -3.96875 L 16.640625 -3.96875 L 16.640625 0 L 2.375 0 Z M 2.375 -19.84375 "/></g></g></g><g fill="#ffffff" fill-opacity="1"><g transform="translate(333.543539, 184.897857)"><g><path d="M 2.578125 -19.84375 L 6.9375 -19.84375 L 6.9375 0 L 2.578125 0 Z M 2.578125 -19.84375 "/></g></g></g><g fill="#ffffff" fill-opacity="1"><g transform="translate(343.063718, 184.897857)"><g><path d="M 9.1875 -19.984375 L 13.203125 -19.984375 L 21.71875 0 L 17.140625 0 L 15.328125 -4.453125 L 6.9375 -4.453125 L 5.125 0 L 0.6875 0 Z M 13.78125 -8.3125 L 11.140625 -14.734375 L 8.5 -8.3125 Z M 13.78125 -8.3125 "/></g></g></g><g fill="#ffffff" fill-opacity="1"><g transform="translate(117.232192, 209.583682)"><g><path d="M 0.875 -13.5 L 2.53125 -13.5 L 6.375 -2.25 L 10.078125 -13.53125 L 11.34375 -13.53125 L 15.046875 -2.25 L 18.890625 -13.5 L 20.5 -13.5 L 15.671875 0.09375 L 14.390625 0.09375 L 10.6875 -10.859375 L 6.953125 0.09375 L 5.6875 0.09375 Z M 0.875 -13.5 "/></g></g></g><g fill="#ffffff" fill-opacity="1"><g transform="translate(144.352546, 209.583682)"><g><path d="M 1.90625 -13.5 L 11.671875 -13.5 L 11.671875 -12.109375 L 3.4375 -12.109375 L 3.4375 -7.5 L 10.796875 -7.5 L 10.796875 -6.109375 L 3.4375 -6.109375 L 3.4375 -1.390625 L 11.765625 -1.390625 L 11.765625 0 L 1.90625 0 Z M 1.90625 -13.5 "/></g></g></g><g fill="#ffffff" fill-opacity="1"><g transform="translate(163.050682, 209.583682)"><g><path d="M 1.90625 -13.5 L 7.65625 -13.5 C 8.425781 -13.5 9.109375 -13.390625 9.703125 -13.171875 C 10.304688 -12.960938 10.800781 -12.671875 11.1875 -12.296875 C 11.757812 -11.691406 12.046875 -10.972656 12.046875 -10.140625 L 12.046875 -10.109375 C 12.046875 -9.671875 11.984375 -9.28125 11.859375 -8.9375 C 11.742188 -8.59375 11.582031 -8.296875 11.375 -8.046875 C 11.164062 -7.796875 10.9375 -7.582031 10.6875 -7.40625 C 10.4375 -7.238281 10.175781 -7.097656 9.90625 -6.984375 C 10.3125 -6.867188 10.6875 -6.71875 11.03125 -6.53125 C 11.382812 -6.34375 11.691406 -6.117188 11.953125 -5.859375 C 12.210938 -5.597656 12.414062 -5.289062 12.5625 -4.9375 C 12.71875 -4.59375 12.796875 -4.1875 12.796875 -3.71875 L 12.796875 -3.6875 C 12.796875 -3.101562 12.679688 -2.582031 12.453125 -2.125 C 12.222656 -1.675781 11.890625 -1.289062 11.453125 -0.96875 C 11.023438 -0.65625 10.507812 -0.414062 9.90625 -0.25 C 9.300781 -0.0820312 8.632812 0 7.90625 0 L 1.90625 0 Z M 10.515625 -9.9375 C 10.515625 -10.601562 10.253906 -11.132812 9.734375 -11.53125 C 9.222656 -11.925781 8.484375 -12.125 7.515625 -12.125 L 3.40625 -12.125 L 3.40625 -7.484375 L 7.40625 -7.484375 C 8.332031 -7.484375 9.082031 -7.6875 9.65625 -8.09375 C 10.226562 -8.5 10.515625 -9.097656 10.515625 -9.890625 Z M 11.265625 -3.8125 C 11.265625 -4.550781 10.960938 -5.117188 10.359375 -5.515625 C 9.753906 -5.921875 8.859375 -6.125 7.671875 -6.125 L 3.40625 -6.125 L 3.40625 -1.375 L 7.9375 -1.375 C 8.96875 -1.375 9.78125 -1.582031 10.375 -2 C 10.96875 -2.425781 11.265625 -3.019531 11.265625 -3.78125 Z M 11.265625 -3.8125 "/></g></g></g><g fill="#ffffff" fill-opacity="1"><g transform="translate(182.751014, 209.583682)"><g/></g></g><g fill="#ffffff" fill-opacity="1"><g transform="translate(194.318219, 209.583682)"><g><path d="M 1.90625 -13.5 L 6.59375 -13.5 C 7.644531 -13.5 8.609375 -13.328125 9.484375 -12.984375 C 10.367188 -12.640625 11.128906 -12.164062 11.765625 -11.5625 C 12.398438 -10.957031 12.890625 -10.25 13.234375 -9.4375 C 13.585938 -8.625 13.765625 -7.738281 13.765625 -6.78125 L 13.765625 -6.75 C 13.765625 -5.800781 13.585938 -4.914062 13.234375 -4.09375 C 12.890625 -3.269531 12.398438 -2.554688 11.765625 -1.953125 C 11.128906 -1.347656 10.367188 -0.867188 9.484375 -0.515625 C 8.609375 -0.171875 7.644531 0 6.59375 0 L 1.90625 0 Z M 3.4375 -12.09375 L 3.4375 -1.40625 L 6.59375 -1.40625 C 7.4375 -1.40625 8.207031 -1.539062 8.90625 -1.8125 C 9.601562 -2.082031 10.191406 -2.453125 10.671875 -2.921875 C 11.148438 -3.398438 11.519531 -3.960938 11.78125 -4.609375 C 12.050781 -5.265625 12.1875 -5.960938 12.1875 -6.703125 L 12.1875 -6.75 C 12.1875 -7.488281 12.050781 -8.179688 11.78125 -8.828125 C 11.519531 -9.484375 11.148438 -10.050781 10.671875 -10.53125 C 10.191406 -11.019531 9.601562 -11.398438 8.90625 -11.671875 C 8.207031 -11.953125 7.4375 -12.09375 6.59375 -12.09375 Z M 3.4375 -12.09375 "/></g></g></g><g fill="#ffffff" fill-opacity="1"><g transform="translate(215.174915, 209.583682)"><g><path d="M 1.90625 -13.5 L 11.671875 -13.5 L 11.671875 -12.109375 L 3.4375 -12.109375 L 3.4375 -7.5 L 10.796875 -7.5 L 10.796875 -6.109375 L 3.4375 -6.109375 L 3.4375 -1.390625 L 11.765625 -1.390625 L 11.765625 0 L 1.90625 0 Z M 1.90625 -13.5 "/></g></g></g><g fill="#ffffff" fill-opacity="1"><g transform="translate(233.873056, 209.583682)"><g><path d="M 0.75 -13.5 L 2.453125 -13.5 L 7.25 -1.875 L 12.0625 -13.5 L 13.703125 -13.5 L 7.90625 0.09375 L 6.5625 0.09375 Z M 0.75 -13.5 "/></g></g></g><g fill="#ffffff" fill-opacity="1"><g transform="translate(254.113014, 209.583682)"><g><path d="M 1.90625 -13.5 L 11.671875 -13.5 L 11.671875 -12.109375 L 3.4375 -12.109375 L 3.4375 -7.5 L 10.796875 -7.5 L 10.796875 -6.109375 L 3.4375 -6.109375 L 3.4375 -1.390625 L 11.765625 -1.390625 L 11.765625 0 L 1.90625 0 Z M 1.90625 -13.5 "/></g></g></g><g fill="#ffffff" fill-opacity="1"><g transform="translate(272.811155, 209.583682)"><g><path d="M 1.90625 -13.5 L 3.4375 -13.5 L 3.4375 -1.40625 L 11.03125 -1.40625 L 11.03125 0 L 1.90625 0 Z M 1.90625 -13.5 "/></g></g></g><g fill="#ffffff" fill-opacity="1"><g transform="translate(290.449287, 209.583682)"><g><path d="M 8.171875 0.234375 C 7.140625 0.234375 6.203125 0.046875 5.359375 -0.328125 C 4.523438 -0.703125 3.804688 -1.207031 3.203125 -1.84375 C 2.597656 -2.476562 2.128906 -3.21875 1.796875 -4.0625 C 1.472656 -4.90625 1.3125 -5.785156 1.3125 -6.703125 L 1.3125 -6.75 C 1.3125 -7.675781 1.476562 -8.5625 1.8125 -9.40625 C 2.144531 -10.257812 2.613281 -11.003906 3.21875 -11.640625 C 3.820312 -12.273438 4.546875 -12.78125 5.390625 -13.15625 C 6.242188 -13.539062 7.1875 -13.734375 8.21875 -13.734375 C 9.238281 -13.734375 10.171875 -13.546875 11.015625 -13.171875 C 11.859375 -12.796875 12.582031 -12.289062 13.1875 -11.65625 C 13.789062 -11.019531 14.253906 -10.28125 14.578125 -9.4375 C 14.910156 -8.59375 15.078125 -7.707031 15.078125 -6.78125 L 15.078125 -6.75 C 15.078125 -5.820312 14.910156 -4.929688 14.578125 -4.078125 C 14.242188 -3.234375 13.773438 -2.492188 13.171875 -1.859375 C 12.566406 -1.222656 11.835938 -0.710938 10.984375 -0.328125 C 10.140625 0.046875 9.203125 0.234375 8.171875 0.234375 Z M 8.21875 -1.171875 C 8.988281 -1.171875 9.695312 -1.316406 10.34375 -1.609375 C 10.988281 -1.898438 11.539062 -2.296875 12 -2.796875 C 12.46875 -3.296875 12.832031 -3.878906 13.09375 -4.546875 C 13.363281 -5.210938 13.5 -5.929688 13.5 -6.703125 L 13.5 -6.75 C 13.5 -7.519531 13.363281 -8.242188 13.09375 -8.921875 C 12.832031 -9.597656 12.460938 -10.1875 11.984375 -10.6875 C 11.515625 -11.1875 10.953125 -11.582031 10.296875 -11.875 C 9.648438 -12.175781 8.941406 -12.328125 8.171875 -12.328125 C 7.398438 -12.328125 6.691406 -12.179688 6.046875 -11.890625 C 5.398438 -11.597656 4.84375 -11.203125 4.375 -10.703125 C 3.914062 -10.203125 3.550781 -9.613281 3.28125 -8.9375 C 3.019531 -8.269531 2.890625 -7.550781 2.890625 -6.78125 L 2.890625 -6.75 C 2.890625 -5.976562 3.019531 -5.253906 3.28125 -4.578125 C 3.550781 -3.898438 3.921875 -3.3125 4.390625 -2.8125 C 4.867188 -2.3125 5.429688 -1.910156 6.078125 -1.609375 C 6.734375 -1.316406 7.445312 -1.171875 8.21875 -1.171875 Z M 8.21875 -1.171875 "/></g></g></g><g fill="#ffffff" fill-opacity="1"><g transform="translate(312.616541, 209.583682)"><g><path d="M 1.90625 -13.5 L 6.953125 -13.5 C 7.710938 -13.5 8.40625 -13.398438 9.03125 -13.203125 C 9.65625 -13.003906 10.1875 -12.71875 10.625 -12.34375 C 11.070312 -11.976562 11.414062 -11.53125 11.65625 -11 C 11.894531 -10.476562 12.015625 -9.882812 12.015625 -9.21875 L 12.015625 -9.171875 C 12.015625 -8.441406 11.867188 -7.800781 11.578125 -7.25 C 11.296875 -6.707031 10.914062 -6.25 10.4375 -5.875 C 9.957031 -5.507812 9.394531 -5.234375 8.75 -5.046875 C 8.113281 -4.859375 7.429688 -4.765625 6.703125 -4.765625 L 3.4375 -4.765625 L 3.4375 0 L 1.90625 0 Z M 6.765625 -6.15625 C 7.316406 -6.15625 7.820312 -6.222656 8.28125 -6.359375 C 8.738281 -6.503906 9.128906 -6.707031 9.453125 -6.96875 C 9.785156 -7.226562 10.035156 -7.535156 10.203125 -7.890625 C 10.378906 -8.253906 10.46875 -8.664062 10.46875 -9.125 L 10.46875 -9.15625 C 10.46875 -10.125 10.132812 -10.851562 9.46875 -11.34375 C 8.8125 -11.84375 7.9375 -12.09375 6.84375 -12.09375 L 3.4375 -12.09375 L 3.4375 -6.15625 Z M 6.765625 -6.15625 "/></g></g></g><g fill="#ffffff" fill-opacity="1"><g transform="translate(331.27614, 209.583682)"><g><path d="M 1.90625 -13.5 L 11.671875 -13.5 L 11.671875 -12.109375 L 3.4375 -12.109375 L 3.4375 -7.5 L 10.796875 -7.5 L 10.796875 -6.109375 L 3.4375 -6.109375 L 3.4375 -1.390625 L 11.765625 -1.390625 L 11.765625 0 L 1.90625 0 Z M 1.90625 -13.5 "/></g></g></g><g fill="#ffffff" fill-opacity="1"><g transform="translate(349.97428, 209.583682)"><g><path d="M 1.90625 -13.5 L 7.71875 -13.5 C 8.550781 -13.5 9.289062 -13.378906 9.9375 -13.140625 C 10.582031 -12.898438 11.117188 -12.566406 11.546875 -12.140625 C 11.878906 -11.804688 12.132812 -11.414062 12.3125 -10.96875 C 12.5 -10.519531 12.59375 -10.023438 12.59375 -9.484375 L 12.59375 -9.453125 C 12.59375 -8.878906 12.5 -8.367188 12.3125 -7.921875 C 12.132812 -7.484375 11.878906 -7.097656 11.546875 -6.765625 C 11.222656 -6.441406 10.835938 -6.175781 10.390625 -5.96875 C 9.941406 -5.757812 9.453125 -5.609375 8.921875 -5.515625 L 13.078125 0 L 11.203125 0 L 7.28125 -5.25 L 3.4375 -5.25 L 3.4375 0 L 1.90625 0 Z M 7.578125 -6.609375 C 8.078125 -6.609375 8.539062 -6.671875 8.96875 -6.796875 C 9.394531 -6.929688 9.757812 -7.117188 10.0625 -7.359375 C 10.375 -7.597656 10.613281 -7.882812 10.78125 -8.21875 C 10.957031 -8.5625 11.046875 -8.953125 11.046875 -9.390625 L 11.046875 -9.421875 C 11.046875 -10.265625 10.742188 -10.921875 10.140625 -11.390625 C 9.535156 -11.859375 8.6875 -12.09375 7.59375 -12.09375 L 3.4375 -12.09375 L 3.4375 -6.609375 Z M 7.578125 -6.609375 "/></g></g></g></svg>