<svg xmlns="http://www.w3.org/2000/svg" xmlns:xlink="http://www.w3.org/1999/xlink" width="6251" zoomAndPan="magnify" viewBox="0 0 4688.25 2343.74993" height="3125" preserveAspectRatio="xMidYMid meet" version="1.0"><defs><g/><clipPath id="55bbcc10b2"><path d="M 1051 925.394531 L 1355 925.394531 L 1355 1416.605469 L 1051 1416.605469 Z M 1051 925.394531 " clip-rule="nonzero"/></clipPath><clipPath id="c4710cc4c1"><path d="M 305.277344 916.304688 L 609 916.304688 L 609 1407.519531 L 305.277344 1407.519531 Z M 305.277344 916.304688 " clip-rule="nonzero"/></clipPath></defs><g clip-path="url(#55bbcc10b2)"><path fill="#ffffff" d="M 1108.082031 925.636719 C 1092.898438 925.636719 1078.621094 931.546875 1067.875 942.285156 C 1045.699219 964.464844 1045.699219 1000.535156 1067.871094 1022.710938 L 1216.910156 1171.742188 L 1067.875 1320.78125 C 1057.132812 1331.519531 1051.21875 1345.796875 1051.21875 1360.992188 C 1051.21875 1376.179688 1057.136719 1390.457031 1067.875 1401.199219 C 1078.617188 1411.9375 1092.898438 1417.851562 1108.082031 1417.851562 C 1123.273438 1417.851562 1137.550781 1411.9375 1148.292969 1401.203125 L 1337.515625 1211.976562 C 1348.265625 1201.226562 1354.179688 1186.933594 1354.167969 1171.726562 C 1354.179688 1156.554688 1348.265625 1142.265625 1337.515625 1131.511719 L 1148.292969 942.289062 C 1137.550781 931.550781 1123.273438 925.636719 1108.082031 925.636719 " fill-opacity="1" fill-rule="nonzero"/></g><g clip-path="url(#c4710cc4c1)"><path fill="#ffffff" d="M 551.371094 916.546875 C 566.558594 916.546875 580.835938 922.460938 591.578125 933.199219 C 613.753906 955.375 613.753906 991.445312 591.582031 1013.621094 L 442.546875 1162.652344 L 591.582031 1311.691406 C 602.320312 1322.429688 608.238281 1336.710938 608.238281 1351.902344 C 608.238281 1367.089844 602.320312 1381.371094 591.578125 1392.109375 C 580.839844 1402.847656 566.558594 1408.761719 551.371094 1408.761719 C 536.183594 1408.761719 521.90625 1402.847656 511.164062 1392.113281 L 321.9375 1202.886719 C 311.1875 1192.136719 305.273438 1177.84375 305.285156 1162.636719 C 305.273438 1147.464844 311.1875 1133.175781 321.941406 1122.421875 L 511.164062 933.199219 C 521.90625 922.460938 536.183594 916.546875 551.371094 916.546875 " fill-opacity="1" fill-rule="nonzero"/></g><g fill="#ffffff" fill-opacity="1"><g transform="translate(636.889959, 1359.997828)"><g><path d="M 44.875 -373.96875 L 218.5 -373.96875 C 261.59375 -373.96875 294.179688 -362.925781 316.265625 -340.84375 C 333.359375 -323.75 341.90625 -302.554688 341.90625 -277.265625 L 341.90625 -276.203125 C 341.90625 -265.515625 340.566406 -256.070312 337.890625 -247.875 C 335.222656 -239.6875 331.664062 -232.296875 327.21875 -225.703125 C 322.769531 -219.117188 317.601562 -213.332031 311.71875 -208.34375 C 305.84375 -203.363281 299.523438 -199.09375 292.765625 -195.53125 C 314.484375 -187.34375 331.578125 -176.210938 344.046875 -162.140625 C 356.515625 -148.066406 362.75 -128.566406 362.75 -103.640625 L 362.75 -102.578125 C 362.75 -85.484375 359.453125 -70.523438 352.859375 -57.703125 C 346.273438 -44.878906 336.835938 -34.191406 324.546875 -25.640625 C 312.253906 -17.097656 297.472656 -10.6875 280.203125 -6.40625 C 262.929688 -2.132812 243.789062 0 222.78125 0 L 44.875 0 Z M 260.171875 -263.375 C 260.171875 -275.84375 255.539062 -285.367188 246.28125 -291.953125 C 237.019531 -298.546875 223.664062 -301.84375 206.21875 -301.84375 L 125.015625 -301.84375 L 125.015625 -222.78125 L 200.875 -222.78125 C 219.039062 -222.78125 233.460938 -225.894531 244.140625 -232.125 C 254.828125 -238.351562 260.171875 -248.414062 260.171875 -262.3125 Z M 281 -113.796875 C 281 -126.253906 276.191406 -136.132812 266.578125 -143.4375 C 256.960938 -150.738281 241.472656 -154.390625 220.109375 -154.390625 L 125.015625 -154.390625 L 125.015625 -72.125 L 222.78125 -72.125 C 240.9375 -72.125 255.175781 -75.414062 265.5 -82 C 275.832031 -88.59375 281 -98.832031 281 -112.71875 Z M 281 -113.796875 "/></g></g></g><g fill="#ffffff" fill-opacity="1"><g transform="translate(1527.418863, 1142.171327)"><g><path d="M 27.0625 -225.484375 L 131.75 -225.484375 C 157.726562 -225.484375 177.378906 -218.828125 190.703125 -205.515625 C 201.003906 -195.203125 206.15625 -182.425781 206.15625 -167.1875 L 206.15625 -166.53125 C 206.15625 -160.09375 205.347656 -154.40625 203.734375 -149.46875 C 202.128906 -144.53125 199.984375 -140.070312 197.296875 -136.09375 C 194.617188 -132.125 191.503906 -128.632812 187.953125 -125.625 C 184.410156 -122.625 180.601562 -120.046875 176.53125 -117.890625 C 189.625 -112.953125 199.925781 -106.242188 207.4375 -97.765625 C 214.957031 -89.285156 218.71875 -77.53125 218.71875 -62.5 L 218.71875 -61.84375 C 218.71875 -51.539062 216.726562 -42.519531 212.75 -34.78125 C 208.78125 -27.050781 203.09375 -20.609375 195.6875 -15.453125 C 188.28125 -10.304688 179.367188 -6.441406 168.953125 -3.859375 C 158.535156 -1.285156 146.992188 0 134.328125 0 L 27.0625 0 Z M 156.875 -158.8125 C 156.875 -166.320312 154.082031 -172.0625 148.5 -176.03125 C 142.914062 -180.007812 134.863281 -182 124.34375 -182 L 75.375 -182 L 75.375 -134.328125 L 121.125 -134.328125 C 132.070312 -134.328125 140.765625 -136.203125 147.203125 -139.953125 C 153.648438 -143.710938 156.875 -149.78125 156.875 -158.15625 Z M 169.4375 -68.609375 C 169.4375 -76.128906 166.535156 -82.085938 160.734375 -86.484375 C 154.941406 -90.890625 145.601562 -93.09375 132.71875 -93.09375 L 75.375 -93.09375 L 75.375 -43.484375 L 134.328125 -43.484375 C 145.273438 -43.484375 153.863281 -45.46875 160.09375 -49.4375 C 166.320312 -53.414062 169.4375 -59.59375 169.4375 -67.96875 Z M 169.4375 -68.609375 "/></g></g></g><g fill="#ffffff" fill-opacity="1"><g transform="translate(1759.955459, 1142.171327)"><g><path d="M 29.3125 -225.484375 L 78.921875 -225.484375 L 78.921875 0 L 29.3125 0 Z M 29.3125 -225.484375 "/></g></g></g><g fill="#ffffff" fill-opacity="1"><g transform="translate(1868.171947, 1142.171327)"><g><path d="M 104.375 -227.09375 L 150.109375 -227.09375 L 246.75 0 L 194.890625 0 L 174.265625 -50.578125 L 78.921875 -50.578125 L 58.296875 0 L 7.734375 0 Z M 156.546875 -94.375 L 126.59375 -167.5 L 96.640625 -94.375 Z M 156.546875 -94.375 "/></g></g></g><g fill="#ffffff" fill-opacity="1"><g transform="translate(2122.609357, 1142.171327)"><g><path d="M 135.609375 3.859375 C 118.003906 3.859375 101.953125 0.960938 87.453125 -4.828125 C 72.960938 -10.628906 60.507812 -18.679688 50.09375 -28.984375 C 39.675781 -39.296875 31.566406 -51.535156 25.765625 -65.703125 C 19.972656 -79.878906 17.078125 -95.34375 17.078125 -112.09375 L 17.078125 -112.75 C 17.078125 -128.851562 20.03125 -143.9375 25.9375 -158 C 31.84375 -172.0625 40.054688 -184.40625 50.578125 -195.03125 C 61.097656 -205.664062 73.550781 -214.046875 87.9375 -220.171875 C 102.320312 -226.296875 118.109375 -229.359375 135.296875 -229.359375 C 145.390625 -229.359375 154.566406 -228.660156 162.828125 -227.265625 C 171.097656 -225.867188 178.773438 -223.878906 185.859375 -221.296875 C 192.953125 -218.722656 199.609375 -215.503906 205.828125 -211.640625 C 212.054688 -207.773438 218.070312 -203.367188 223.875 -198.421875 L 192.625 -160.734375 C 188.332031 -164.390625 184.035156 -167.613281 179.734375 -170.40625 C 175.441406 -173.195312 170.988281 -175.554688 166.375 -177.484375 C 161.757812 -179.421875 156.765625 -180.925781 151.390625 -182 C 146.023438 -183.070312 140.125 -183.609375 133.6875 -183.609375 C 124.664062 -183.609375 116.234375 -181.726562 108.390625 -177.96875 C 100.554688 -174.21875 93.6875 -169.171875 87.78125 -162.828125 C 81.875 -156.492188 77.253906 -149.085938 73.921875 -140.609375 C 70.597656 -132.128906 68.9375 -123.054688 68.9375 -113.390625 L 68.9375 -112.75 C 68.9375 -102.4375 70.597656 -92.929688 73.921875 -84.234375 C 77.253906 -75.535156 81.976562 -67.960938 88.09375 -61.515625 C 94.21875 -55.078125 101.410156 -50.085938 109.671875 -46.546875 C 117.941406 -43.003906 127.125 -41.234375 137.21875 -41.234375 C 155.6875 -41.234375 171.257812 -45.742188 183.9375 -54.765625 L 183.9375 -86.96875 L 134 -86.96875 L 134 -129.8125 L 231.9375 -129.8125 L 231.9375 -31.890625 C 220.332031 -22.015625 206.53125 -13.585938 190.53125 -6.609375 C 174.53125 0.367188 156.222656 3.859375 135.609375 3.859375 Z M 135.609375 3.859375 "/></g></g></g><g fill="#ffffff" fill-opacity="1"><g transform="translate(2375.114428, 1142.171327)"><g><path d="M 29.3125 -225.484375 L 78.921875 -225.484375 L 78.921875 0 L 29.3125 0 Z M 29.3125 -225.484375 "/></g></g></g><g fill="#ffffff" fill-opacity="1"><g transform="translate(2483.330916, 1142.171327)"><g><path d="M 136.578125 3.859375 C 119.179688 3.859375 103.179688 0.800781 88.578125 -5.3125 C 73.984375 -11.4375 61.367188 -19.703125 50.734375 -30.109375 C 40.109375 -40.523438 31.84375 -52.765625 25.9375 -66.828125 C 20.03125 -80.898438 17.078125 -95.988281 17.078125 -112.09375 L 17.078125 -112.75 C 17.078125 -128.851562 20.082031 -143.9375 26.09375 -158 C 32.101562 -172.0625 40.421875 -184.40625 51.046875 -195.03125 C 61.679688 -205.664062 74.351562 -214.046875 89.0625 -220.171875 C 103.78125 -226.296875 119.832031 -229.359375 137.21875 -229.359375 C 154.613281 -229.359375 170.613281 -226.296875 185.21875 -220.171875 C 199.820312 -214.046875 212.4375 -205.773438 223.0625 -195.359375 C 233.695312 -184.953125 241.96875 -172.710938 247.875 -158.640625 C 253.78125 -144.578125 256.734375 -129.492188 256.734375 -113.390625 L 256.734375 -112.75 C 256.734375 -96.632812 253.722656 -81.546875 247.703125 -67.484375 C 241.691406 -53.421875 233.367188 -41.070312 222.734375 -30.4375 C 212.109375 -19.8125 199.441406 -11.4375 184.734375 -5.3125 C 170.023438 0.800781 153.972656 3.859375 136.578125 3.859375 Z M 137.21875 -41.875 C 147.101562 -41.875 156.234375 -43.695312 164.609375 -47.34375 C 172.984375 -51 180.125 -56.046875 186.03125 -62.484375 C 191.9375 -68.929688 196.550781 -76.394531 199.875 -84.875 C 203.207031 -93.363281 204.875 -102.4375 204.875 -112.09375 L 204.875 -112.75 C 204.875 -122.40625 203.207031 -131.53125 199.875 -140.125 C 196.550781 -148.71875 191.828125 -156.234375 185.703125 -162.671875 C 179.585938 -169.117188 172.34375 -174.21875 163.96875 -177.96875 C 155.59375 -181.726562 146.460938 -183.609375 136.578125 -183.609375 C 126.484375 -183.609375 117.300781 -181.78125 109.03125 -178.125 C 100.769531 -174.476562 93.6875 -169.429688 87.78125 -162.984375 C 81.875 -156.546875 77.253906 -149.085938 73.921875 -140.609375 C 70.597656 -132.128906 68.9375 -123.054688 68.9375 -113.390625 L 68.9375 -112.75 C 68.9375 -103.082031 70.597656 -93.953125 73.921875 -85.359375 C 77.253906 -76.773438 81.976562 -69.257812 88.09375 -62.8125 C 94.21875 -56.375 101.410156 -51.273438 109.671875 -47.515625 C 117.941406 -43.753906 127.125 -41.875 137.21875 -41.875 Z M 137.21875 -41.875 "/></g></g></g><g fill="#ffffff" fill-opacity="1"><g transform="translate(2757.092825, 1142.171327)"><g/></g></g><g fill="#ffffff" fill-opacity="1"><g transform="translate(2853.714731, 1142.171327)"><g><path d="M 107.265625 3.21875 C 90.085938 3.21875 73.226562 0.265625 56.6875 -5.640625 C 40.15625 -11.546875 25.125 -20.617188 11.59375 -32.859375 L 40.90625 -67.96875 C 51.21875 -59.59375 61.796875 -52.9375 72.640625 -48 C 83.484375 -43.0625 95.347656 -40.59375 108.234375 -40.59375 C 118.546875 -40.59375 126.546875 -42.46875 132.234375 -46.21875 C 137.921875 -49.976562 140.765625 -55.1875 140.765625 -61.84375 L 140.765625 -62.5 C 140.765625 -65.71875 140.171875 -68.5625 138.984375 -71.03125 C 137.804688 -73.5 135.550781 -75.804688 132.21875 -77.953125 C 128.894531 -80.097656 124.28125 -82.242188 118.375 -84.390625 C 112.46875 -86.546875 104.789062 -88.800781 95.34375 -91.15625 C 83.96875 -93.945312 73.660156 -97.0625 64.421875 -100.5 C 55.191406 -103.9375 47.351562 -108.175781 40.90625 -113.21875 C 34.46875 -118.269531 29.472656 -124.550781 25.921875 -132.0625 C 22.378906 -139.582031 20.609375 -148.925781 20.609375 -160.09375 L 20.609375 -160.734375 C 20.609375 -171.046875 22.539062 -180.332031 26.40625 -188.59375 C 30.28125 -196.863281 35.707031 -204.003906 42.6875 -210.015625 C 49.664062 -216.035156 57.984375 -220.65625 67.640625 -223.875 C 77.304688 -227.09375 87.9375 -228.703125 99.53125 -228.703125 C 116.070312 -228.703125 131.265625 -226.234375 145.109375 -221.296875 C 158.960938 -216.359375 171.691406 -209.273438 183.296875 -200.046875 L 157.515625 -162.671875 C 147.421875 -169.546875 137.539062 -174.96875 127.875 -178.9375 C 118.21875 -182.914062 108.554688 -184.90625 98.890625 -184.90625 C 89.222656 -184.90625 81.972656 -183.023438 77.140625 -179.265625 C 72.316406 -175.503906 69.90625 -170.832031 69.90625 -165.25 L 69.90625 -164.609375 C 69.90625 -160.953125 70.601562 -157.78125 72 -155.09375 C 73.394531 -152.414062 75.914062 -150.003906 79.5625 -147.859375 C 83.21875 -145.710938 88.210938 -143.671875 94.546875 -141.734375 C 100.878906 -139.796875 108.878906 -137.539062 118.546875 -134.96875 C 129.921875 -131.957031 140.0625 -128.570312 148.96875 -124.8125 C 157.882812 -121.0625 165.40625 -116.554688 171.53125 -111.296875 C 177.65625 -106.035156 182.269531 -99.859375 185.375 -92.765625 C 188.488281 -85.679688 190.046875 -77.203125 190.046875 -67.328125 L 190.046875 -66.6875 C 190.046875 -55.507812 188.003906 -45.570312 183.921875 -36.875 C 179.847656 -28.1875 174.160156 -20.890625 166.859375 -14.984375 C 159.554688 -9.078125 150.859375 -4.566406 140.765625 -1.453125 C 130.671875 1.660156 119.503906 3.21875 107.265625 3.21875 Z M 107.265625 3.21875 "/></g></g></g><g fill="#ffffff" fill-opacity="1"><g transform="translate(3059.841283, 1142.171327)"><g><path d="M 132.71875 3.859375 C 116.175781 3.859375 100.816406 0.851562 86.640625 -5.15625 C 72.472656 -11.164062 60.234375 -19.378906 49.921875 -29.796875 C 39.617188 -40.210938 31.566406 -52.503906 25.765625 -66.671875 C 19.972656 -80.847656 17.078125 -95.988281 17.078125 -112.09375 L 17.078125 -112.75 C 17.078125 -128.851562 19.972656 -143.9375 25.765625 -158 C 31.566406 -172.0625 39.617188 -184.40625 49.921875 -195.03125 C 60.234375 -205.664062 72.582031 -214.046875 86.96875 -220.171875 C 101.363281 -226.296875 117.253906 -229.359375 134.640625 -229.359375 C 145.171875 -229.359375 154.785156 -228.5 163.484375 -226.78125 C 172.179688 -225.0625 180.070312 -222.695312 187.15625 -219.6875 C 194.238281 -216.675781 200.785156 -213.023438 206.796875 -208.734375 C 212.816406 -204.441406 218.40625 -199.71875 223.5625 -194.5625 L 191.984375 -158.15625 C 183.179688 -166.101562 174.21875 -172.332031 165.09375 -176.84375 C 155.96875 -181.351562 145.710938 -183.609375 134.328125 -183.609375 C 124.878906 -183.609375 116.128906 -181.78125 108.078125 -178.125 C 100.023438 -174.476562 93.097656 -169.429688 87.296875 -162.984375 C 81.492188 -156.546875 76.984375 -149.085938 73.765625 -140.609375 C 70.546875 -132.128906 68.9375 -123.054688 68.9375 -113.390625 L 68.9375 -112.75 C 68.9375 -103.082031 70.546875 -93.953125 73.765625 -85.359375 C 76.984375 -76.773438 81.4375 -69.257812 87.125 -62.8125 C 92.820312 -56.375 99.695312 -51.273438 107.75 -47.515625 C 115.800781 -43.753906 124.660156 -41.875 134.328125 -41.875 C 147.210938 -41.875 158.109375 -44.234375 167.015625 -48.953125 C 175.929688 -53.679688 184.789062 -60.128906 193.59375 -68.296875 L 225.171875 -36.40625 C 219.367188 -30.175781 213.351562 -24.585938 207.125 -19.640625 C 200.894531 -14.703125 194.078125 -10.460938 186.671875 -6.921875 C 179.265625 -3.378906 171.15625 -0.695312 162.34375 1.125 C 153.539062 2.945312 143.664062 3.859375 132.71875 3.859375 Z M 132.71875 3.859375 "/></g></g></g><g fill="#ffffff" fill-opacity="1"><g transform="translate(3297.530895, 1142.171327)"><g><path d="M 104.375 -227.09375 L 150.109375 -227.09375 L 246.75 0 L 194.890625 0 L 174.265625 -50.578125 L 78.921875 -50.578125 L 58.296875 0 L 7.734375 0 Z M 156.546875 -94.375 L 126.59375 -167.5 L 96.640625 -94.375 Z M 156.546875 -94.375 "/></g></g></g><g fill="#ffffff" fill-opacity="1"><g transform="translate(3551.968305, 1142.171327)"><g><path d="M 135.609375 3.859375 C 118.003906 3.859375 101.953125 0.960938 87.453125 -4.828125 C 72.960938 -10.628906 60.507812 -18.679688 50.09375 -28.984375 C 39.675781 -39.296875 31.566406 -51.535156 25.765625 -65.703125 C 19.972656 -79.878906 17.078125 -95.34375 17.078125 -112.09375 L 17.078125 -112.75 C 17.078125 -128.851562 20.03125 -143.9375 25.9375 -158 C 31.84375 -172.0625 40.054688 -184.40625 50.578125 -195.03125 C 61.097656 -205.664062 73.550781 -214.046875 87.9375 -220.171875 C 102.320312 -226.296875 118.109375 -229.359375 135.296875 -229.359375 C 145.390625 -229.359375 154.566406 -228.660156 162.828125 -227.265625 C 171.097656 -225.867188 178.773438 -223.878906 185.859375 -221.296875 C 192.953125 -218.722656 199.609375 -215.503906 205.828125 -211.640625 C 212.054688 -207.773438 218.070312 -203.367188 223.875 -198.421875 L 192.625 -160.734375 C 188.332031 -164.390625 184.035156 -167.613281 179.734375 -170.40625 C 175.441406 -173.195312 170.988281 -175.554688 166.375 -177.484375 C 161.757812 -179.421875 156.765625 -180.925781 151.390625 -182 C 146.023438 -183.070312 140.125 -183.609375 133.6875 -183.609375 C 124.664062 -183.609375 116.234375 -181.726562 108.390625 -177.96875 C 100.554688 -174.21875 93.6875 -169.171875 87.78125 -162.828125 C 81.875 -156.492188 77.253906 -149.085938 73.921875 -140.609375 C 70.597656 -132.128906 68.9375 -123.054688 68.9375 -113.390625 L 68.9375 -112.75 C 68.9375 -102.4375 70.597656 -92.929688 73.921875 -84.234375 C 77.253906 -75.535156 81.976562 -67.960938 88.09375 -61.515625 C 94.21875 -55.078125 101.410156 -50.085938 109.671875 -46.546875 C 117.941406 -43.003906 127.125 -41.234375 137.21875 -41.234375 C 155.6875 -41.234375 171.257812 -45.742188 183.9375 -54.765625 L 183.9375 -86.96875 L 134 -86.96875 L 134 -129.8125 L 231.9375 -129.8125 L 231.9375 -31.890625 C 220.332031 -22.015625 206.53125 -13.585938 190.53125 -6.609375 C 174.53125 0.367188 156.222656 3.859375 135.609375 3.859375 Z M 135.609375 3.859375 "/></g></g></g><g fill="#ffffff" fill-opacity="1"><g transform="translate(3804.473375, 1142.171327)"><g><path d="M 27.0625 -225.484375 L 76.671875 -225.484375 L 76.671875 -45.09375 L 189.09375 -45.09375 L 189.09375 0 L 27.0625 0 Z M 27.0625 -225.484375 "/></g></g></g><g fill="#ffffff" fill-opacity="1"><g transform="translate(4003.836373, 1142.171327)"><g><path d="M 29.3125 -225.484375 L 78.921875 -225.484375 L 78.921875 0 L 29.3125 0 Z M 29.3125 -225.484375 "/></g></g></g><g fill="#ffffff" fill-opacity="1"><g transform="translate(4112.052862, 1142.171327)"><g><path d="M 104.375 -227.09375 L 150.109375 -227.09375 L 246.75 0 L 194.890625 0 L 174.265625 -50.578125 L 78.921875 -50.578125 L 58.296875 0 L 7.734375 0 Z M 156.546875 -94.375 L 126.59375 -167.5 L 96.640625 -94.375 Z M 156.546875 -94.375 "/></g></g></g><g fill="#ffffff" fill-opacity="1"><g transform="translate(1545.011288, 1422.776777)"><g><path d="M 9.859375 -153.390625 L 28.703125 -153.390625 L 72.53125 -25.640625 L 114.609375 -153.828125 L 128.84375 -153.828125 L 170.921875 -25.640625 L 214.75 -153.390625 L 232.9375 -153.390625 L 178.15625 1.09375 L 163.46875 1.09375 L 121.390625 -123.375 L 79.109375 1.09375 L 64.640625 1.09375 Z M 9.859375 -153.390625 "/></g></g></g><g fill="#ffffff" fill-opacity="1"><g transform="translate(1853.290104, 1422.776777)"><g><path d="M 21.6875 -153.390625 L 132.578125 -153.390625 L 132.578125 -137.609375 L 39 -137.609375 L 39 -85.234375 L 122.703125 -85.234375 L 122.703125 -69.46875 L 39 -69.46875 L 39 -15.78125 L 133.671875 -15.78125 L 133.671875 0 L 21.6875 0 Z M 21.6875 -153.390625 "/></g></g></g><g fill="#ffffff" fill-opacity="1"><g transform="translate(2065.833025, 1422.776777)"><g><path d="M 21.6875 -153.390625 L 87 -153.390625 C 95.757812 -153.390625 103.535156 -152.179688 110.328125 -149.765625 C 117.117188 -147.359375 122.707031 -144.035156 127.09375 -139.796875 C 133.664062 -132.929688 136.953125 -124.753906 136.953125 -115.265625 L 136.953125 -114.828125 C 136.953125 -109.859375 136.257812 -105.4375 134.875 -101.5625 C 133.488281 -97.6875 131.625 -94.328125 129.28125 -91.484375 C 126.945312 -88.640625 124.351562 -86.226562 121.5 -84.25 C 118.65625 -82.28125 115.695312 -80.640625 112.625 -79.328125 C 117.15625 -78.003906 121.425781 -76.285156 125.4375 -74.171875 C 129.457031 -72.054688 132.925781 -69.535156 135.84375 -66.609375 C 138.769531 -63.691406 141.109375 -60.222656 142.859375 -56.203125 C 144.617188 -52.179688 145.5 -47.546875 145.5 -42.296875 L 145.5 -41.859375 C 145.5 -35.285156 144.179688 -29.40625 141.546875 -24.21875 C 138.921875 -19.03125 135.160156 -14.644531 130.265625 -11.0625 C 125.367188 -7.488281 119.488281 -4.75 112.625 -2.84375 C 105.757812 -0.945312 98.164062 0 89.84375 0 L 21.6875 0 Z M 119.421875 -112.84375 C 119.421875 -120.445312 116.5 -126.507812 110.65625 -131.03125 C 104.8125 -135.5625 96.410156 -137.828125 85.453125 -137.828125 L 38.78125 -137.828125 L 38.78125 -85.015625 L 84.140625 -85.015625 C 94.660156 -85.015625 103.171875 -87.316406 109.671875 -91.921875 C 116.171875 -96.523438 119.421875 -103.351562 119.421875 -112.40625 Z M 127.96875 -43.390625 C 127.96875 -51.710938 124.535156 -58.175781 117.671875 -62.78125 C 110.804688 -67.382812 100.65625 -69.6875 87.21875 -69.6875 L 38.78125 -69.6875 L 38.78125 -15.5625 L 90.28125 -15.5625 C 101.96875 -15.5625 111.171875 -17.96875 117.890625 -22.78125 C 124.609375 -27.601562 127.96875 -34.328125 127.96875 -42.953125 Z M 127.96875 -43.390625 "/></g></g></g><g fill="#ffffff" fill-opacity="1"><g transform="translate(2289.767979, 1422.776777)"><g/></g></g><g fill="#ffffff" fill-opacity="1"><g transform="translate(2421.253147, 1422.776777)"><g><path d="M 21.6875 -153.390625 L 74.9375 -153.390625 C 86.914062 -153.390625 97.90625 -151.453125 107.90625 -147.578125 C 117.914062 -143.710938 126.535156 -138.34375 133.765625 -131.46875 C 141.003906 -124.601562 146.59375 -116.53125 150.53125 -107.25 C 154.476562 -97.976562 156.453125 -87.9375 156.453125 -77.125 L 156.453125 -76.6875 C 156.453125 -65.882812 154.476562 -55.804688 150.53125 -46.453125 C 146.59375 -37.109375 141.003906 -29 133.765625 -22.125 C 126.535156 -15.257812 117.914062 -9.851562 107.90625 -5.90625 C 97.90625 -1.96875 86.914062 0 74.9375 0 L 21.6875 0 Z M 39 -137.390625 L 39 -16 L 74.9375 -16 C 84.582031 -16 93.347656 -17.53125 101.234375 -20.59375 C 109.117188 -23.664062 115.800781 -27.90625 121.28125 -33.3125 C 126.757812 -38.71875 130.992188 -45.109375 133.984375 -52.484375 C 136.984375 -59.859375 138.484375 -67.78125 138.484375 -76.25 L 138.484375 -76.6875 C 138.484375 -85.164062 136.984375 -93.09375 133.984375 -100.46875 C 130.992188 -107.84375 126.757812 -114.269531 121.28125 -119.75 C 115.800781 -125.226562 109.117188 -129.535156 101.234375 -132.671875 C 93.347656 -135.816406 84.582031 -137.390625 74.9375 -137.390625 Z M 39 -137.390625 "/></g></g></g><g fill="#ffffff" fill-opacity="1"><g transform="translate(2658.332567, 1422.776777)"><g><path d="M 21.6875 -153.390625 L 132.578125 -153.390625 L 132.578125 -137.609375 L 39 -137.609375 L 39 -85.234375 L 122.703125 -85.234375 L 122.703125 -69.46875 L 39 -69.46875 L 39 -15.78125 L 133.671875 -15.78125 L 133.671875 0 L 21.6875 0 Z M 21.6875 -153.390625 "/></g></g></g><g fill="#ffffff" fill-opacity="1"><g transform="translate(2870.875539, 1422.776777)"><g><path d="M 8.546875 -153.390625 L 27.828125 -153.390625 L 82.390625 -21.25 L 137.171875 -153.390625 L 155.796875 -153.390625 L 89.84375 1.09375 L 74.5 1.09375 Z M 8.546875 -153.390625 "/></g></g></g><g fill="#ffffff" fill-opacity="1"><g transform="translate(3100.944458, 1422.776777)"><g><path d="M 21.6875 -153.390625 L 132.578125 -153.390625 L 132.578125 -137.609375 L 39 -137.609375 L 39 -85.234375 L 122.703125 -85.234375 L 122.703125 -69.46875 L 39 -69.46875 L 39 -15.78125 L 133.671875 -15.78125 L 133.671875 0 L 21.6875 0 Z M 21.6875 -153.390625 "/></g></g></g><g fill="#ffffff" fill-opacity="1"><g transform="translate(3313.48743, 1422.776777)"><g><path d="M 21.6875 -153.390625 L 39 -153.390625 L 39 -16 L 125.34375 -16 L 125.34375 0 L 21.6875 0 Z M 21.6875 -153.390625 "/></g></g></g><g fill="#ffffff" fill-opacity="1"><g transform="translate(3513.981222, 1422.776777)"><g><path d="M 92.90625 2.625 C 81.21875 2.625 70.585938 0.507812 61.015625 -3.71875 C 51.453125 -7.957031 43.238281 -13.691406 36.375 -20.921875 C 29.507812 -28.148438 24.210938 -36.550781 20.484375 -46.125 C 16.765625 -55.695312 14.90625 -65.738281 14.90625 -76.25 L 14.90625 -76.6875 C 14.90625 -87.207031 16.800781 -97.285156 20.59375 -106.921875 C 24.394531 -116.566406 29.726562 -125.003906 36.59375 -132.234375 C 43.457031 -139.472656 51.707031 -145.242188 61.34375 -149.546875 C 70.988281 -153.859375 81.65625 -156.015625 93.34375 -156.015625 C 105.03125 -156.015625 115.65625 -153.894531 125.21875 -149.65625 C 134.789062 -145.425781 143.007812 -139.691406 149.875 -132.453125 C 156.75 -125.222656 162.046875 -116.820312 165.765625 -107.25 C 169.492188 -97.6875 171.359375 -87.644531 171.359375 -77.125 L 171.359375 -76.6875 C 171.359375 -66.175781 169.457031 -56.097656 165.65625 -46.453125 C 161.863281 -36.816406 156.53125 -28.378906 149.65625 -21.140625 C 142.789062 -13.910156 134.535156 -8.140625 124.890625 -3.828125 C 115.253906 0.472656 104.59375 2.625 92.90625 2.625 Z M 93.34375 -13.359375 C 102.113281 -13.359375 110.1875 -15.003906 117.5625 -18.296875 C 124.9375 -21.585938 131.253906 -26.078125 136.515625 -31.765625 C 141.773438 -37.460938 145.898438 -44.109375 148.890625 -51.703125 C 151.890625 -59.304688 153.390625 -67.488281 153.390625 -76.25 L 153.390625 -76.6875 C 153.390625 -85.457031 151.890625 -93.675781 148.890625 -101.34375 C 145.898438 -109.007812 141.703125 -115.691406 136.296875 -121.390625 C 130.890625 -127.085938 124.5 -131.613281 117.125 -134.96875 C 109.75 -138.332031 101.675781 -140.015625 92.90625 -140.015625 C 84.144531 -140.015625 76.070312 -138.367188 68.6875 -135.078125 C 61.3125 -131.796875 54.992188 -127.304688 49.734375 -121.609375 C 44.484375 -115.910156 40.359375 -109.265625 37.359375 -101.671875 C 34.367188 -94.078125 32.875 -85.894531 32.875 -77.125 L 32.875 -76.6875 C 32.875 -67.925781 34.367188 -59.707031 37.359375 -52.03125 C 40.359375 -44.363281 44.554688 -37.679688 49.953125 -31.984375 C 55.359375 -26.296875 61.75 -21.769531 69.125 -18.40625 C 76.507812 -15.039062 84.582031 -13.359375 93.34375 -13.359375 Z M 93.34375 -13.359375 "/></g></g></g><g fill="#ffffff" fill-opacity="1"><g transform="translate(3765.95783, 1422.776777)"><g><path d="M 21.6875 -153.390625 L 79.109375 -153.390625 C 87.722656 -153.390625 95.570312 -152.253906 102.65625 -149.984375 C 109.738281 -147.722656 115.800781 -144.507812 120.84375 -140.34375 C 125.882812 -136.1875 129.753906 -131.113281 132.453125 -125.125 C 135.160156 -119.132812 136.515625 -112.335938 136.515625 -104.734375 L 136.515625 -104.296875 C 136.515625 -95.972656 134.90625 -88.707031 131.6875 -82.5 C 128.476562 -76.289062 124.132812 -71.066406 118.65625 -66.828125 C 113.175781 -62.597656 106.785156 -59.421875 99.484375 -57.296875 C 92.179688 -55.179688 84.4375 -54.125 76.25 -54.125 L 39 -54.125 L 39 0 L 21.6875 0 Z M 76.90625 -69.90625 C 83.1875 -69.90625 88.921875 -70.707031 94.109375 -72.3125 C 99.296875 -73.914062 103.75 -76.210938 107.46875 -79.203125 C 111.195312 -82.203125 114.046875 -85.75 116.015625 -89.84375 C 117.992188 -93.9375 118.984375 -98.535156 118.984375 -103.640625 L 118.984375 -104.078125 C 118.984375 -115.035156 115.222656 -123.328125 107.703125 -128.953125 C 100.179688 -134.578125 90.210938 -137.390625 77.796875 -137.390625 L 39 -137.390625 L 39 -69.90625 Z M 76.90625 -69.90625 "/></g></g></g><g fill="#ffffff" fill-opacity="1"><g transform="translate(3978.062707, 1422.776777)"><g><path d="M 21.6875 -153.390625 L 132.578125 -153.390625 L 132.578125 -137.609375 L 39 -137.609375 L 39 -85.234375 L 122.703125 -85.234375 L 122.703125 -69.46875 L 39 -69.46875 L 39 -15.78125 L 133.671875 -15.78125 L 133.671875 0 L 21.6875 0 Z M 21.6875 -153.390625 "/></g></g></g><g fill="#ffffff" fill-opacity="1"><g transform="translate(4190.605679, 1422.776777)"><g><path d="M 21.6875 -153.390625 L 87.65625 -153.390625 C 97.144531 -153.390625 105.578125 -152.035156 112.953125 -149.328125 C 120.335938 -146.628906 126.4375 -142.867188 131.25 -138.046875 C 135.050781 -134.242188 137.972656 -129.785156 140.015625 -124.671875 C 142.066406 -119.566406 143.09375 -113.945312 143.09375 -107.8125 L 143.09375 -107.375 C 143.09375 -100.945312 142.066406 -95.210938 140.015625 -90.171875 C 137.972656 -85.128906 135.085938 -80.742188 131.359375 -77.015625 C 127.640625 -73.296875 123.222656 -70.226562 118.109375 -67.8125 C 112.992188 -65.40625 107.441406 -63.691406 101.453125 -62.671875 L 148.5625 0 L 127.3125 0 L 82.828125 -59.609375 L 39 -59.609375 L 39 0 L 21.6875 0 Z M 86.109375 -75.15625 C 91.804688 -75.15625 97.066406 -75.882812 101.890625 -77.34375 C 106.710938 -78.8125 110.875 -80.894531 114.375 -83.59375 C 117.882812 -86.300781 120.625 -89.585938 122.59375 -93.453125 C 124.570312 -97.328125 125.5625 -101.75 125.5625 -106.71875 L 125.5625 -107.15625 C 125.5625 -116.644531 122.125 -124.054688 115.25 -129.390625 C 108.382812 -134.722656 98.742188 -137.390625 86.328125 -137.390625 L 39 -137.390625 L 39 -75.15625 Z M 86.109375 -75.15625 "/></g></g></g></svg>